<svg xmlns="http://www.w3.org/2000/svg" xmlns:xlink="http://www.w3.org/1999/xlink" width="128" height="128" viewBox="0 0 128 128">
    <defs>
        <path id="a" d="M0 8.007A8.01 8.01 0 0 1 8.007 0h111.986A8.01 8.01 0 0 1 128 8.007v111.986a8.01 8.01 0 0 1-8.007 8.007H8.007A8.01 8.01 0 0 1 0 119.993V8.007z"/>
        <path id="c" d="M111.357 125s4.64-.754 5.912-6.898c1.355-6.595-.041-10.954-.84-14.653-.786-3.712-.53-5.59.694-11.581 1.939-9.625 1.786-26.253.737-34.257-1.048-7.993-4.838-13.014-6.652-16.797-3.001-6.223-3.047-13.929-3.047-13.929h1.674v-2.96l-.607-.464v-5.984s-2.724-.611-7.42-.45c-4.693-.155-7.419.45-7.419.45v5.984l-.618.464v2.96h1.671s-.028 7.706-3.03 13.93c-1.813 3.782-5.606 8.803-6.65 16.796-1.046 8.002-1.203 24.632.738 34.257 1.202 5.99 1.48 7.876.678 11.581-.785 3.699-2.2 8.058-.827 14.653 1.275 6.144 5.92 6.898 5.92 6.898h19.086z"/>
    </defs>
    <g fill="none" fill-rule="evenodd">
        <mask id="b" fill="#fff">
            <use xlink:href="#a"/>
        </mask>
        <use fill="#FFF" xlink:href="#a"/>
        <g fill-rule="nonzero" mask="url(#b)">
            <path stroke="#CCC" d="M106.427 21.574C95.094 10.24 80.027 4 64 4s-31.094 6.241-42.426 17.574C10.24 32.906 4 47.974 4 64c0 16.027 6.241 31.094 17.574 42.426C32.906 117.76 47.974 124 64 124c16.026 0 31.094-6.241 42.426-17.574C117.76 95.094 124 80.026 124 64c0-16.027-6.241-31.094-17.573-42.426z"/>
            <path stroke="#CCC" d="M114.366 58.04c-.551-1.22-1.072-2.37-1.285-3.45-.226-1.141-.186-2.439-.144-3.813.065-2.1.132-4.272-.722-6.333-.871-2.1-2.471-3.6-4.018-5.048-.988-.925-1.92-1.799-2.547-2.734-.635-.95-1.092-2.155-1.575-3.43-.747-1.973-1.52-4.013-3.112-5.605-1.592-1.592-3.63-2.364-5.603-3.111-1.276-.484-2.482-.94-3.431-1.576-.936-.627-1.81-1.56-2.734-2.547-1.45-1.548-2.948-3.148-5.05-4.019-2.06-.854-4.232-.787-6.333-.723-1.374.043-2.672.083-3.813-.143-1.08-.214-2.231-.734-3.45-1.285-1.85-.837-3.948-1.785-6.255-1.785s-4.404.948-6.255 1.785c-1.219.55-2.37 1.071-3.45 1.285-1.14.225-2.438.185-3.812.143-2.101-.065-4.273-.132-6.333.722-2.101.872-3.6 2.472-5.049 4.019-.924.987-1.798 1.92-2.733 2.546-.95.636-2.155 1.092-3.431 1.576-1.973.747-4.013 1.52-5.604 3.111-1.592 1.592-2.365 3.631-3.112 5.603-.483 1.277-.94 2.482-1.576 3.432-.626.935-1.559 1.809-2.547 2.734-1.547 1.449-3.147 2.947-4.018 5.048-.855 2.061-.788 4.233-.723 6.334.042 1.375.082 2.672-.144 3.813-.213 1.08-.734 2.231-1.285 3.45-.836 1.85-1.784 3.948-1.784 6.255s.948 4.404 1.785 6.255c.55 1.219 1.071 2.37 1.285 3.45.225 1.14.185 2.439.143 3.813-.065 2.1-.132 4.272.722 6.332.872 2.101 2.472 3.6 4.018 5.049.988.925 1.92 1.798 2.547 2.733.636.95 1.092 2.156 1.576 3.432.747 1.972 1.52 4.012 3.11 5.603 1.592 1.592 3.632 2.365 5.604 3.112 1.276.484 2.482.94 3.432 1.576.935.626 1.808 1.56 2.733 2.547 1.45 1.547 2.948 3.147 5.049 4.018 2.06.855 4.233.788 6.334.723 1.374-.042 2.672-.082 3.813.144 1.08.213 2.231.734 3.45 1.285 1.85.836 3.948 1.785 6.255 1.785s4.404-.948 6.255-1.785c1.219-.551 2.37-1.072 3.45-1.285 1.14-.226 2.439-.186 3.812-.144 2.101.065 4.273.132 6.333-.722 2.101-.871 3.6-2.471 5.049-4.018.924-.988 1.798-1.92 2.733-2.546.95-.636 2.155-1.093 3.432-1.576 1.972-.747 4.011-1.52 5.603-3.111 1.592-1.592 2.365-3.632 3.112-5.604.483-1.276.94-2.481 1.576-3.431.626-.935 1.559-1.809 2.546-2.734 1.548-1.449 3.148-2.947 4.02-5.049.854-2.06.787-4.233.722-6.333-.042-1.375-.082-2.673.143-3.814.214-1.08.734-2.23 1.285-3.45.837-1.85 1.786-3.948 1.786-6.255s-.949-4.404-1.785-6.255z"/>
            <path stroke="#CCC" d="M51.523 47.234c4.515 0 8.188-3.673 8.188-8.188 0-4.514-3.673-8.187-8.188-8.187-4.515 0-8.188 3.673-8.188 8.187 0 4.515 3.673 8.188 8.188 8.188zM95.062 53.603c0-4.515-3.673-8.188-8.188-8.188-4.515 0-8.188 3.673-8.188 8.188 0 4.514 3.673 8.188 8.188 8.188 4.515 0 8.188-3.674 8.188-8.188zM74.397 82.845c-4.514 0-8.188 3.673-8.188 8.188 0 4.515 3.674 8.188 8.188 8.188 4.515 0 8.188-3.673 8.188-8.188 0-4.515-3.673-8.188-8.188-8.188zM51.393 72.318c0-4.515-3.673-8.188-8.188-8.188-4.515 0-8.187 3.673-8.187 8.188 0 4.515 3.673 8.188 8.187 8.188 4.515 0 8.188-3.673 8.188-8.188zM72.188 68.159a6.115 6.115 0 0 0-6.109-6.108 6.115 6.115 0 0 0-6.108 6.108 6.115 6.115 0 0 0 6.108 6.108 6.115 6.115 0 0 0 6.109-6.108zM74.397 40.996a6.115 6.115 0 0 0 6.109-6.108 6.115 6.115 0 0 0-6.109-6.109 6.115 6.115 0 0 0-6.108 6.109 6.115 6.115 0 0 0 6.108 6.108zM93.112 68.289a6.115 6.115 0 0 0-6.108 6.108 6.115 6.115 0 0 0 6.108 6.109 6.115 6.115 0 0 0 6.109-6.109 6.115 6.115 0 0 0-6.109-6.108zM51.523 87.004a6.115 6.115 0 0 0-6.108 6.108 6.115 6.115 0 0 0 6.108 6.109 6.115 6.115 0 0 0 6.109-6.109 6.115 6.115 0 0 0-6.109-6.108zM34.888 57.632a6.115 6.115 0 0 0 6.108-6.109 6.115 6.115 0 0 0-6.108-6.108 6.115 6.115 0 0 0-6.109 6.108 6.115 6.115 0 0 0 6.109 6.109z"/>
            <path fill="#CCC" d="M56.554 51.86a1.95 1.95 0 0 0-1.744 3.486l4.16 2.08a1.95 1.95 0 0 0 1.744-3.487l-4.16-2.08zM68.159 51.393c.499 0 .998-.19 1.378-.57l2.08-2.08a1.95 1.95 0 1 0-2.757-2.757l-2.08 2.08a1.95 1.95 0 0 0 1.379 3.327zM61.22 79.257l-2.08-2.08a1.95 1.95 0 1 0-2.757 2.758l2.08 2.08c.38.38.88.57 1.378.57a1.95 1.95 0 0 0 1.378-3.328zM79.935 68.86a1.95 1.95 0 1 0-2.757 2.757l2.08 2.08c.38.38.88.57 1.378.57a1.95 1.95 0 0 0 1.378-3.328l-2.08-2.079zM102.638 58.097l-4.159 2.08a1.95 1.95 0 1 0 1.744 3.487l4.159-2.08a1.95 1.95 0 1 0-1.744-3.487zM30.028 64.701a1.95 1.95 0 0 0-2.757 0l-2.08 2.08a1.95 1.95 0 1 0 2.757 2.756l2.08-2.08a1.95 1.95 0 0 0 0-2.756zM60.542 27.948c.38.38.88.571 1.379.571a1.95 1.95 0 0 0 1.378-3.328l-2.08-2.08a1.95 1.95 0 1 0-2.756 2.758l2.08 2.08zM61.92 97.401a1.95 1.95 0 0 0-1.949 1.95v2.08a1.95 1.95 0 0 0 3.899 0v-2.08a1.95 1.95 0 0 0-1.95-1.95zM89.655 85.496l-2.08 2.08a1.95 1.95 0 1 0 2.757 2.756l2.08-2.08a1.95 1.95 0 1 0-2.757-2.756zM36.266 85.496a1.95 1.95 0 1 0-2.757 2.757l2.08 2.079c.38.38.88.571 1.378.571a1.95 1.95 0 0 0 1.378-3.328l-2.079-2.08zM87.575 36.266c.38.38.88.571 1.379.571a1.95 1.95 0 0 0 1.378-3.328l-2.08-2.08a1.95 1.95 0 1 0-2.756 2.757l2.08 2.08zM95.192 45.155a1.957 1.957 0 0 0 1.95-1.95 1.957 1.957 0 0 0-1.95-1.95 1.957 1.957 0 0 0-1.95 1.95 1.957 1.957 0 0 0 1.95 1.95zM70.94 56.384a1.957 1.957 0 0 0-.572 1.378 1.957 1.957 0 0 0 1.95 1.95 1.957 1.957 0 0 0 1.95-1.95 1.957 1.957 0 0 0-1.95-1.95c-.512 0-1.016.208-1.378.572zM45.987 58.463a1.952 1.952 0 0 0-.572 1.378 1.952 1.952 0 0 0 1.95 1.95 1.957 1.957 0 0 0 1.949-1.95 1.957 1.957 0 0 0-1.95-1.95c-.514 0-1.016.209-1.377.572zM36.967 38.916a1.957 1.957 0 0 0 1.95-1.949 1.952 1.952 0 0 0-1.95-1.95 1.952 1.952 0 0 0-1.95 1.95 1.957 1.957 0 0 0 1.95 1.95zM68.86 77.179a1.957 1.957 0 0 0-.571 1.377 1.957 1.957 0 0 0 1.95 1.95 1.952 1.952 0 0 0 1.949-1.95 1.957 1.957 0 0 0-1.95-1.95c-.512 0-1.016.209-1.377.573zM70.238 101.56a1.957 1.957 0 0 0-1.95 1.95 1.952 1.952 0 0 0 1.95 1.95 1.952 1.952 0 0 0 1.95-1.95 1.957 1.957 0 0 0-1.95-1.95zM30.729 74.527a1.957 1.957 0 0 0-1.95 1.95 1.957 1.957 0 0 0 1.95 1.95 1.957 1.957 0 0 0 1.95-1.95 1.957 1.957 0 0 0-1.95-1.95z"/>
        </g>
        <g fill-rule="nonzero" mask="url(#b)">
            <use fill="#FFF" fill-rule="evenodd" xlink:href="#c"/>
            <path stroke="#CCC" d="M111.313 124.5c.167-.032.456-.113.828-.265a6.85 6.85 0 0 0 1.996-1.267c1.258-1.136 2.186-2.759 2.643-4.967.916-4.46.698-7.678-.374-12.39l-.12-.527-.12-.517a78.986 78.986 0 0 1-.227-1.014c-.756-3.577-.636-5.27.694-11.784 1.745-8.662 1.931-24.935.73-34.093-.521-3.984-1.71-7.382-3.627-11.1-.438-.85-2.538-4.625-2.979-5.544a25.774 25.774 0 0 1-1.258-3.151c-.791-2.407-1.304-4.98-1.596-7.552-.102-.9-.17-1.735-.208-2.486a22.636 22.636 0 0 1-.034-.955l-.003-.503h1.677v-2.213l-.607-.464v-5.817a21.583 21.583 0 0 0-1.088-.156c-1.636-.196-3.585-.285-5.848-.208-2.224-.073-4.17.016-5.804.209-.42.05-.788.103-1.099.156v5.819l-.618.464v2.21h1.673l-.002.502c0 .177-.009.502-.031.955-.038.75-.103 1.586-.204 2.486-.287 2.572-.797 5.145-1.586 7.552a25.641 25.641 0 0 1-1.257 3.15c-.442.922-2.542 4.697-2.979 5.543-1.918 3.72-3.107 7.118-3.628 11.103-1.198 9.173-1.012 25.44.734 34.093 1.326 6.609 1.442 8.247.676 11.784-.065.306-.135.623-.232 1.047l-.246 1.08c-1.058 4.695-1.27 7.893-.348 12.32.458 2.209 1.387 3.83 2.645 4.967.637.576 1.32.99 2 1.268.4.164.705.246.785.265h19.042z"/>
        </g>
    </g>
</svg>
