<svg width="10" height="16" viewBox="0 0 10 16" fill="none" xmlns="http://www.w3.org/2000/svg">
<path d="M9.11992 1.24513L7.17959 1.24219C4.99971 1.24219 3.59097 2.60966 3.59097 4.72619V6.33255H1.64006C1.47148 6.33255 1.33496 6.46186 1.33496 6.62136V8.94879C1.33496 9.10829 1.47163 9.23745 1.64006 9.23745H3.59097V15.1103C3.59097 15.2698 3.72748 15.399 3.89606 15.399H6.44144C6.61003 15.399 6.74654 15.2697 6.74654 15.1103V9.23745H9.02761C9.19619 9.23745 9.33271 9.10829 9.33271 8.94879L9.33364 6.62136C9.33364 6.54477 9.30142 6.47143 9.24429 6.41723C9.18716 6.36303 9.10933 6.33255 9.02839 6.33255H6.74654V4.97082C6.74654 4.31631 6.91139 3.98406 7.81251 3.98406L9.1196 3.98361C9.28803 3.98361 9.42455 3.8543 9.42455 3.69495V1.5338C9.42455 1.37459 9.28819 1.24543 9.11992 1.24513Z" stroke="#BE6C2F"/>
</svg>
