<svg width="71" height="71" viewBox="0 0 71 71" fill="none" xmlns="http://www.w3.org/2000/svg">
<path fill-rule="evenodd" fill="none" clip-rule="evenodd" d="M35.5 70C54.5538 70 70 54.5538 70 35.5C70 16.4462 54.5538 1 35.5 1C16.4462 1 1 16.4462 1 35.5C1 54.5538 16.4462 70 35.5 70Z" stroke="white" stroke-width="1.5"/>
<path d="M44.6572 17.2347L39.9671 17.2275C34.698 17.2275 31.2929 20.5329 31.2929 25.6488V29.5316H26.5773C26.1698 29.5316 25.8398 29.8442 25.8398 30.2297V35.8554C25.8398 36.241 26.1702 36.5532 26.5773 36.5532H31.2929V50.7487C31.2929 51.1342 31.6229 51.4464 32.0304 51.4464H38.1829C38.5904 51.4464 38.9204 51.1338 38.9204 50.7487V36.5532H44.434C44.8415 36.5532 45.1715 36.241 45.1715 35.8554L45.1738 30.2297C45.1738 30.0446 45.0959 29.8673 44.9578 29.7363C44.8197 29.6053 44.6316 29.5316 44.4359 29.5316H38.9204V26.2401C38.9204 24.6581 39.3188 23.855 41.497 23.855L44.6564 23.8539C45.0635 23.8539 45.3935 23.5414 45.3935 23.1562V17.9324C45.3935 17.5476 45.0639 17.2354 44.6572 17.2347Z" stroke="white" stroke-width="2"/>
</svg>
