<svg width="30" height="30" viewBox="0 0 30 30" fill="none" xmlns="http://www.w3.org/2000/svg">
<path fill-rule="evenodd" clip-rule="evenodd" d="M18.5657 14.9996L29.2618 4.30347C30.2464 3.31888 30.2464 1.72254 29.2618 0.738095C28.2773 -0.246495 26.6811 -0.246495 25.6965 0.738095L15.0002 11.4344L4.30395 0.737954C3.31936 -0.246636 1.72317 -0.246636 0.738581 0.737954C-0.245868 1.72254 -0.245868 3.31888 0.738581 4.30333L11.4348 14.9994L0.738581 25.6957C-0.245868 26.6803 -0.245868 28.2766 0.738581 29.2611C1.72317 30.2457 3.31936 30.2457 4.30395 29.2611L15.0002 18.5648L25.6965 29.2611C26.6809 30.2457 28.2773 30.2457 29.2618 29.2611C30.2464 28.2765 30.2464 26.6803 29.2618 25.6957L18.5657 14.9996Z" fill="#EAEAEA"/>
</svg>
