<svg width="12" height="11" viewBox="0 0 12 11" fill="none" xmlns="http://www.w3.org/2000/svg">
<path d="M11.9165 1.46256L10.322 0.0613136C10.273 0.0180433 10.208 -0.0039606 10.1438 0.000587694C10.0788 0.00489013 10.0181 0.0347614 9.97507 0.0838092L4.19185 6.66605L2.13553 3.94433C2.09632 3.89245 2.03793 3.85816 1.97339 3.84931C1.90898 3.83972 1.84321 3.85717 1.79134 3.89663L0.0976493 5.17605C-0.0106493 5.25792 -0.0321615 5.41207 0.0497078 5.52037L3.85725 10.5599C3.90175 10.6188 3.97058 10.6547 4.04434 10.6574C4.04729 10.6574 4.05036 10.6574 4.05331 10.6574C4.12387 10.6574 4.19124 10.6271 4.23807 10.5738L11.9387 1.80946C12.0284 1.70755 12.0185 1.55205 11.9165 1.46256Z" fill="white"/>
</svg>
