<svg width="71" height="71" viewBox="0 0 71 71" fill="none" xmlns="http://www.w3.org/2000/svg">
<path fill-rule="evenodd" clip-rule="evenodd" d="M35.5 70C54.5538 70 70 54.5538 70 35.5C70 16.4462 54.5538 1 35.5 1C16.4462 1 1 16.4462 1 35.5C1 54.5538 16.4462 70 35.5 70Z" stroke="white" stroke-width="1.5"/>
<path d="M41.9335 17.8564H29.7125V19.8564H41.9335V17.8564ZM29.7125 17.8564C23.5365 17.8564 18.5283 22.8646 18.5283 29.0406H20.5283C20.5283 23.9692 24.6411 19.8564 29.7125 19.8564V17.8564ZM18.5283 29.0406V41.2617H20.5283V29.0406H18.5283ZM18.5283 41.2617C18.5283 47.4376 23.5365 52.4458 29.7125 52.4458V50.4458C24.6411 50.4458 20.5283 46.3331 20.5283 41.2617H18.5283ZM29.7125 52.4458H41.9335V50.4458H29.7125V52.4458ZM41.9335 52.4458C48.1095 52.4458 53.1177 47.4376 53.1177 41.2617H51.1177C51.1177 46.3331 47.005 50.4458 41.9335 50.4458V52.4458ZM53.1177 41.2617V29.0406H51.1177V41.2617H53.1177ZM53.1177 29.0406C53.1177 22.8646 48.1095 17.8564 41.9335 17.8564V19.8564C47.005 19.8564 51.1177 23.9692 51.1177 29.0406H53.1177Z" fill="white"/>
<path d="M35.6373 26.6328C31.0356 26.6328 27.3047 30.3637 27.3047 34.9654H29.3047C29.3047 31.4683 32.1402 28.6328 35.6373 28.6328V26.6328ZM27.3047 34.9654C27.3047 39.5671 31.0356 43.298 35.6373 43.298V41.298C32.1402 41.298 29.3047 38.4626 29.3047 34.9654H27.3047ZM35.6373 43.298C40.239 43.298 43.9699 39.5671 43.9699 34.9654H41.9699C41.9699 38.4626 39.1345 41.298 35.6373 41.298V43.298ZM43.9699 34.9654C43.9699 30.3637 40.239 26.6328 35.6373 26.6328V28.6328C39.1345 28.6328 41.9699 31.4683 41.9699 34.9654H43.9699Z" fill="white"/>
<path d="M44.6373 24C43.7331 24 43 24.7331 43 25.6373C43 26.5415 43.7331 27.2746 44.6373 27.2746C45.5415 27.2746 46.2746 26.5415 46.2746 25.6373C46.2746 24.7331 45.5415 24 44.6373 24Z" fill="white"/>
<path d="M44.6373 23.25C43.3189 23.25 42.25 24.3189 42.25 25.6373H43.75C43.75 25.1473 44.1473 24.75 44.6373 24.75V23.25ZM42.25 25.6373C42.25 26.9557 43.3189 28.0246 44.6373 28.0246V26.5246C44.1473 26.5246 43.75 26.1273 43.75 25.6373H42.25ZM44.6373 28.0246C45.9557 28.0246 47.0246 26.9557 47.0246 25.6373H45.5246C45.5246 26.1273 45.1273 26.5246 44.6373 26.5246V28.0246ZM47.0246 25.6373C47.0246 24.3189 45.9557 23.25 44.6373 23.25V24.75C45.1273 24.75 45.5246 25.1473 45.5246 25.6373H47.0246Z" fill="white"/>
</svg>
