<svg width="16" height="13" viewBox="0 0 16 13" fill="none" xmlns="http://www.w3.org/2000/svg">
<path d="M1.06648 6.11947L0.894697 6.58904L0.895304 6.58926L1.06648 6.11947ZM4.22688 7.27103L4.7033 7.11929L4.62878 6.88532L4.39806 6.80125L4.22688 7.27103ZM1.06278 5.43912L1.23896 5.90705L1.239 5.90703L1.06278 5.43912ZM14.0331 0.554313L14.2094 1.02223L14.2098 1.02208L14.0331 0.554313ZM14.5319 0.96758L15.021 1.07172L15.021 1.07149L14.5319 0.96758ZM12.2043 11.8981L11.7153 11.7939L11.7153 11.7941L12.2043 11.8981ZM11.6208 12.1179L11.9101 11.7102L11.9099 11.71L11.6208 12.1179ZM8.44335 9.86584L8.73248 9.45791L8.73245 9.45789L8.44335 9.86584ZM7.80269 9.88329L7.49142 9.49199L7.49133 9.49207L7.80269 9.88329ZM6.04103 11.2853L5.72967 10.8941L5.72912 10.8946L6.04103 11.2853ZM5.45015 11.1117L5.92661 10.9601L5.92657 10.9599L5.45015 11.1117ZM6.26721 6.28322L6.01461 5.85172L6.01421 5.85196L6.26721 6.28322ZM11.8504 3.01481L11.5984 2.58298L11.5978 2.58331L11.8504 3.01481ZM6.02161 6.88433L6.5006 6.74091L6.50043 6.74036L6.02161 6.88433ZM6.62527 8.9004L6.14628 9.04382L6.14635 9.04406L6.62527 8.9004ZM6.90708 8.88099L6.41204 8.81071L6.41196 8.81127L6.90708 8.88099ZM7.06404 7.77541L6.56902 7.70503L6.569 7.70513L7.06404 7.77541ZM7.36006 7.2322L7.02901 6.85749L7.02875 6.85772L7.36006 7.2322ZM11.9678 3.16117L11.6372 2.78612L11.6368 2.78646L11.9678 3.16117ZM0.895304 6.58926L4.0557 7.74082L4.39806 6.80125L1.23766 5.64969L0.895304 6.58926ZM0.886599 4.97118C0.130627 5.25581 0.14023 6.31303 0.894697 6.58904L1.23826 5.64991C1.35074 5.69106 1.35476 5.86345 1.23896 5.90705L0.886599 4.97118ZM13.8569 0.0863966L0.886554 4.9712L1.239 5.90703L14.2094 1.02223L13.8569 0.0863966ZM15.021 1.07149C15.1681 0.379049 14.4784 -0.148256 13.8565 0.0865465L14.2098 1.02208C14.1673 1.03813 14.1195 1.02652 14.0891 1.00129C14.0579 0.975479 14.0305 0.922021 14.0429 0.863672L15.021 1.07149ZM12.6934 12.0022L15.021 1.07172L14.0429 0.863441L11.7153 11.7939L12.6934 12.0022ZM11.3314 12.5257C11.832 12.8809 12.5609 12.6254 12.6934 12.002L11.7153 11.7941C11.7265 11.7412 11.765 11.7074 11.7976 11.6952C11.8298 11.683 11.874 11.6846 11.9101 11.7102L11.3314 12.5257ZM8.15422 10.2738L11.3316 12.5259L11.9099 11.71L8.73248 9.45791L8.15422 10.2738ZM8.11395 10.2746C8.11827 10.2711 8.12481 10.2682 8.1336 10.268C8.14238 10.2678 8.14932 10.2703 8.15425 10.2738L8.73245 9.45789C8.35815 9.19264 7.85042 9.20642 7.49142 9.49199L8.11395 10.2746ZM6.35239 11.6766L8.11405 10.2745L7.49133 9.49207L5.72967 10.8941L6.35239 11.6766ZM4.97369 11.2633C5.16121 11.8526 5.88212 12.0519 6.35294 11.6761L5.72912 10.8946C5.76346 10.8671 5.80684 10.8627 5.83942 10.8723C5.87217 10.8819 5.91107 10.9112 5.92661 10.9601L4.97369 11.2633ZM3.75046 7.42278L4.97373 11.2634L5.92657 10.9599L4.7033 7.11929L3.75046 7.42278ZM6.51981 6.71472L12.103 3.44631L11.5978 2.58331L6.01461 5.85172L6.51981 6.71472ZM6.50043 6.74036C6.49996 6.73879 6.49999 6.7381 6.50001 6.73776C6.50003 6.73724 6.50018 6.73596 6.50101 6.73392C6.50255 6.73017 6.50721 6.72212 6.52022 6.71448L6.01421 5.85196C5.61176 6.08805 5.40379 6.56604 5.54278 7.0283L6.50043 6.74036ZM7.10426 8.75698L6.50059 6.74091L5.54262 7.02775L6.14628 9.04382L7.10426 8.75698ZM6.41196 8.81127C6.44123 8.60342 6.61868 8.50908 6.74047 8.50078C6.8613 8.49255 7.04522 8.56018 7.10419 8.75673L6.14635 9.04406C6.24817 9.38348 6.56261 9.51521 6.80843 9.49847C7.05522 9.48166 7.35214 9.30618 7.40219 8.95072L6.41196 8.81127ZM6.569 7.70513L6.41204 8.81071L7.40211 8.95127L7.55907 7.84569L6.569 7.70513ZM7.02875 6.85772C6.78056 7.07731 6.61583 7.37574 6.56902 7.70503L7.55906 7.84578C7.57143 7.75878 7.61565 7.67367 7.69138 7.60667L7.02875 6.85772ZM11.6368 2.78646L7.02901 6.85749L7.69112 7.6069L12.2989 3.53587L11.6368 2.78646ZM12.1025 3.44663C11.9107 3.55855 11.6952 3.48285 11.5889 3.35022C11.5368 3.28523 11.4958 3.19103 11.5003 3.0781C11.5052 2.95554 11.5623 2.85207 11.6372 2.78612L12.2985 3.53622C12.4164 3.43228 12.4929 3.2842 12.4995 3.11793C12.5058 2.96128 12.4489 2.82426 12.3692 2.72485C12.2078 2.52339 11.8904 2.4125 11.5984 2.58298L12.1025 3.44663Z" fill="#BE6C2F"/>
</svg>
