<svg width="16" height="14" viewBox="0 0 16 14" fill="none" xmlns="http://www.w3.org/2000/svg">
<path d="M14.4119 2.65491C13.9028 2.89052 13.3603 3.04669 12.7947 3.12252C13.3765 2.75601 13.8207 2.18008 14.0294 1.48589C13.4869 1.82712 12.8879 2.06814 12.2496 2.20265C11.7345 1.624 11.0003 1.26562 10.1993 1.26562C8.64537 1.26562 7.39433 2.59623 7.39433 4.22745C7.39433 4.46215 7.41315 4.68783 7.45936 4.90268C5.12586 4.78262 3.06105 3.60277 1.67396 1.80545C1.43179 2.24869 1.28975 2.75601 1.28975 3.30216C1.28975 4.32765 1.79033 5.23669 2.5365 5.76297C2.08555 5.75395 1.64315 5.61583 1.26835 5.39827C1.26835 5.4073 1.26835 5.41904 1.26835 5.43077C1.26835 6.86971 2.24129 8.06491 3.51714 8.34024C3.28867 8.40613 3.03966 8.43773 2.78124 8.43773C2.60154 8.43773 2.42013 8.4269 2.24984 8.38718C2.61352 9.55981 3.6455 10.4219 4.87257 10.4499C3.91761 11.238 2.70508 11.7128 1.39243 11.7128C1.16225 11.7128 0.941474 11.702 0.720703 11.6722C1.96404 12.518 3.43756 13.001 5.0266 13.001C10.1916 13.001 13.0154 8.48738 13.0154 4.57499C13.0154 4.4441 13.0112 4.31772 13.0052 4.19224C13.5622 3.77518 14.0303 3.25432 14.4119 2.65491Z" fill="white" stroke="#BE6C2F"/>
</svg>
