<svg width="71" height="71" viewBox="0 0 71 71" fill="none" xmlns="http://www.w3.org/2000/svg">
<path fill-rule="evenodd" clip-rule="evenodd" d="M35.5 70C54.5538 70 70 54.5538 70 35.5C70 16.4462 54.5538 1 35.5 1C16.4462 1 1 16.4462 1 35.5C1 54.5538 16.4462 70 35.5 70Z" stroke="white" stroke-width="1.5"/>
<path d="M52.6602 44.5047C52.6168 44.4078 52.5763 44.3274 52.5387 44.263C51.9167 43.1029 50.7282 41.6789 48.9737 39.9906L48.9181 39.933C48.0843 39.1274 47.58 38.5988 47.3689 38.3282C46.9825 37.8126 46.896 37.2908 47.1071 36.7621C47.2563 36.3626 47.8167 35.519 48.787 34.23C49.2973 33.5469 49.7015 32.9995 50 32.587C52.1529 29.6228 53.0862 27.7286 52.7999 26.9037L52.6887 26.7109C52.6139 26.5949 52.4211 26.4887 52.1104 26.3919C51.7989 26.2953 51.4009 26.2793 50.9155 26.3437L45.5402 26.3822C45.4531 26.3502 45.3288 26.3532 45.1668 26.3919C45.005 26.4306 44.924 26.4501 44.924 26.4501L44.8305 26.4985L44.7562 26.5566C44.694 26.5951 44.6255 26.6627 44.5508 26.7594C44.4765 26.8558 44.4143 26.9688 44.3646 27.0977C43.7794 28.6571 43.114 30.1069 42.3673 31.4471C41.9068 32.2462 41.484 32.9388 41.0978 33.5252C40.7122 34.1114 40.3887 34.5433 40.1275 34.8202C39.8661 35.0973 39.6301 35.3193 39.4181 35.487C39.2065 35.6548 39.045 35.7257 38.9331 35.6998C38.821 35.6738 38.7154 35.6481 38.6155 35.6224C38.4414 35.5063 38.3013 35.3485 38.1958 35.1488C38.0897 34.949 38.0183 34.6976 37.981 34.3948C37.9439 34.0917 37.9219 33.831 37.9156 33.6119C37.9098 33.393 37.9125 33.0834 37.9251 32.6839C37.938 32.2842 37.9439 32.0138 37.9439 31.872C37.9439 31.3822 37.9531 30.8506 37.9716 30.2772C37.9904 29.7037 38.0056 29.2493 38.0184 28.9145C38.0311 28.5795 38.037 28.2249 38.037 27.8512C38.037 27.4775 38.015 27.1844 37.9716 26.9716C37.9287 26.7592 37.8629 26.5529 37.7761 26.353C37.6888 26.1532 37.5611 25.9987 37.3935 25.889C37.2255 25.7795 37.0167 25.6926 36.7682 25.628C36.1087 25.4734 35.2688 25.3898 34.2483 25.3768C31.934 25.351 30.4469 25.5058 29.7874 25.8409C29.5261 25.9825 29.2897 26.1759 29.0783 26.4206C28.8542 26.7042 28.823 26.859 28.9847 26.8845C29.7314 27.0003 30.26 27.2775 30.5711 27.7156L30.6833 27.9478C30.7705 28.1153 30.8575 28.4118 30.9447 28.837C31.0317 29.2622 31.0879 29.7326 31.1126 30.2478C31.1747 31.1888 31.1747 31.9942 31.1126 32.6642C31.0503 33.3345 30.9914 33.8564 30.9353 34.2301C30.8791 34.6039 30.7952 34.9067 30.6833 35.1386C30.5711 35.3706 30.4965 35.5124 30.4592 35.5638C30.4218 35.6153 30.3907 35.6477 30.366 35.6604C30.2043 35.7246 30.0361 35.7573 29.862 35.7573C29.6876 35.7573 29.4762 35.667 29.2274 35.4865C28.9786 35.306 28.7205 35.058 28.4529 34.7423C28.1853 34.4264 27.8836 33.985 27.5475 33.418C27.2116 32.8511 26.8632 32.181 26.5023 31.4077L26.2038 30.847C26.0171 30.4862 25.7622 29.961 25.4386 29.2716C25.1149 28.582 24.8288 27.915 24.58 27.2706C24.4806 27 24.3312 26.794 24.1321 26.6522L24.0387 26.594C23.9766 26.5426 23.8769 26.4879 23.7402 26.4297C23.6032 26.3715 23.4603 26.3298 23.3109 26.3042L18.1967 26.3426C17.6741 26.3426 17.3195 26.4652 17.1328 26.7101L17.0581 26.826C17.0208 26.8905 17.002 26.9936 17.002 27.1354C17.002 27.2772 17.0393 27.4512 17.114 27.6572C17.8606 29.4745 18.6725 31.2271 19.5496 32.9153C20.4268 34.6035 21.1891 35.9634 21.836 36.9938C22.483 38.0249 23.1425 38.9981 23.8144 39.9128C24.4864 40.8279 24.9312 41.4143 25.1488 41.6719C25.3667 41.93 25.5379 42.123 25.6623 42.2518L26.129 42.7157C26.4276 43.025 26.8661 43.3955 27.4448 43.8271C28.0235 44.2591 28.6642 44.6843 29.3673 45.1034C30.0704 45.5219 30.8885 45.8634 31.8218 46.1276C32.755 46.392 33.6633 46.4981 34.5468 46.4469H36.6933C37.1287 46.4079 37.4585 46.2662 37.6826 46.0215L37.7569 45.9246C37.8068 45.8477 37.8536 45.7282 37.8967 45.5674C37.9404 45.4063 37.9621 45.2288 37.9621 45.0358C37.9494 44.4817 37.9901 43.9824 38.0832 43.5378C38.1762 43.0934 38.2822 42.7583 38.4008 42.5327C38.5194 42.3072 38.6531 42.1169 38.802 41.9627C38.9511 41.8081 39.0574 41.7145 39.1198 41.6823C39.1818 41.6498 39.2313 41.6278 39.2686 41.6146C39.5672 41.5116 39.9187 41.6114 40.3235 41.9145C40.7279 42.2173 41.1073 42.5913 41.4622 43.0357C41.8168 43.4806 42.2429 43.9796 42.7405 44.5337C43.2385 45.0879 43.6739 45.4999 44.047 45.771L44.4202 46.0029C44.6694 46.1577 44.9929 46.2995 45.3912 46.4283C45.7887 46.5571 46.137 46.5893 46.4361 46.5249L51.2141 46.4478C51.6867 46.4478 52.0544 46.3667 52.3153 46.2059C52.5766 46.0448 52.7319 45.8674 52.782 45.6743C52.8319 45.4811 52.8346 45.2619 52.7914 45.0168C52.7472 44.7723 52.7036 44.6013 52.6602 44.5047Z" stroke="white" stroke-width="2"/>
</svg>
