<svg width="72" height="72" viewBox="0 0 72 72" fill="none" xmlns="http://www.w3.org/2000/svg">
<path d="M53.8864 27.3569C53.4571 25.7075 52.192 24.4087 50.5856 23.9679C47.6744 23.1667 35.9999 23.1667 35.9999 23.1667C35.9999 23.1667 24.3254 23.1667 21.414 23.9679C19.8076 24.4087 18.5426 25.7075 18.1132 27.3569C17.3333 30.3462 17.3333 36.5834 17.3333 36.5834C17.3333 36.5834 17.3333 42.8204 18.1132 45.81C18.5426 47.4594 19.8076 48.7582 21.414 49.1992C24.3254 50.0001 35.9999 50.0001 35.9999 50.0001C35.9999 50.0001 47.6744 50.0001 50.5856 49.1992C52.192 48.7582 53.4571 47.4594 53.8864 45.81C54.6666 42.8204 54.6666 36.5834 54.6666 36.5834C54.6666 36.5834 54.6666 30.3462 53.8864 27.3569Z" stroke="white" stroke-width="2"/>
<path d="M34.03 42.0437C33.3639 42.46 32.5 41.9811 32.5 41.1957V33.1375C32.5 32.3521 33.364 31.8733 34.03 32.2895L40.4766 36.3188C41.1032 36.7105 41.1032 37.6231 40.4765 38.0148L34.03 42.0437Z" stroke="white" stroke-width="2"/>
<path d="M1 36C1 16.67 16.67 1 36 1C55.33 1 71 16.67 71 36C71 55.33 55.33 71 36 71C16.67 71 1 55.33 1 36Z" stroke="white" stroke-width="1.5"/>
</svg>
